<?xml version="1.0" encoding="utf-8"?>
<!-- Generator: Adobe Illustrator 27.8.0, SVG Export Plug-In . SVG Version: 6.00 Build 0)  -->
<!DOCTYPE svg PUBLIC "-//W3C//DTD SVG 1.1//EN" "http://www.w3.org/Graphics/SVG/1.1/DTD/svg11.dtd" [
	<!ENTITY ns_extend "http://ns.adobe.com/Extensibility/1.0/">
	<!ENTITY ns_ai "http://ns.adobe.com/AdobeIllustrator/10.0/">
	<!ENTITY ns_graphs "http://ns.adobe.com/Graphs/1.0/">
	<!ENTITY ns_vars "http://ns.adobe.com/Variables/1.0/">
	<!ENTITY ns_imrep "http://ns.adobe.com/ImageReplacement/1.0/">
	<!ENTITY ns_sfw "http://ns.adobe.com/SaveForWeb/1.0/">
	<!ENTITY ns_custom "http://ns.adobe.com/GenericCustomNamespace/1.0/">
	<!ENTITY ns_adobe_xpath "http://ns.adobe.com/XPath/1.0/">
]>
<svg version="1.1"
	 id="Layer_1" xmlns:x="&ns_extend;" xmlns:i="&ns_ai;" xmlns:graph="&ns_graphs;" xmlns:svg="http://www.w3.org/2000/svg"
	 xmlns="http://www.w3.org/2000/svg" xmlns:xlink="http://www.w3.org/1999/xlink" x="0px" y="0px" viewBox="0 0 635.4 399.6"
	 style="enable-background:new 0 0 635.4 399.6;" xml:space="preserve">
<style type="text/css">
	.st0{fill-opacity:0;stroke:#000000;stroke-width:0.4252;stroke-linecap:round;stroke-linejoin:round;stroke-miterlimit:11.3386;}
	.st1{opacity:0;enable-background:new    ;}
	.st2{fill:#FFFFFF;}
	
		.st3{fill:#FFFFFF;fill-opacity:0;stroke:#FFFFFF;stroke-width:6.5197;stroke-linecap:round;stroke-linejoin:round;stroke-miterlimit:11.3386;}
	
		.st4{fill:#FFFFFF;fill-opacity:0;stroke:#FFFFFF;stroke-width:9.0709;stroke-linecap:round;stroke-linejoin:round;stroke-miterlimit:11.3386;}
	.st5{fill-opacity:0;stroke:#000000;stroke-width:0.5669;stroke-linecap:round;stroke-linejoin:round;stroke-miterlimit:11.3386;}
	.st6{fill-opacity:0;stroke:#000000;stroke-width:0.3402;stroke-linecap:round;stroke-linejoin:round;stroke-miterlimit:11.3386;}
	.st7{fill-rule:evenodd;clip-rule:evenodd;}
	.st8{fill-opacity:0;stroke:#000000;stroke-width:0.2835;stroke-linecap:round;stroke-linejoin:round;stroke-miterlimit:11.3386;}
</style>
<metadata>
	<sfw  xmlns="&ns_sfw;">
		<slices></slices>
		<sliceSourceBounds  bottomLeftOrigin="true" height="485.2" width="701.5" x="28.5" y="27.1"></sliceSourceBounds>
	</sfw>
</metadata>
<g transform="translate(0 0) scale(1 1)">
</g>
<g>
	<path class="st0" d="M67,495.8v5.7"/>
</g>
<g>
	<path class="st0" d="M208.8,495.8v5.7"/>
</g>
<g>
	<path class="st0" d="M350.5,495.8v5.7"/>
</g>
<g>
	<g class="st1">
		<rect x="-3.8" y="496.2" style="fill:none;" width="3.8" height="5.8"/>
		<text transform="matrix(1 0 0 1 -3.8358 500.4521)" style="font-family:'ArialMT'; font-size:4.9133px;">1</text>
	</g>
	<g class="st1">
		<rect x="-4.7" y="495.6" style="fill:none;" width="5.5" height="7"/>
		
			<text transform="matrix(1 0 0 1 -4.681 499.8486)" style="fill:none;stroke:#000000;stroke-width:0.4252;stroke-linecap:round;stroke-linejoin:round;stroke-miterlimit:11.3386; font-family:'ArialMT'; font-size:4.9133px;">1</text>
	</g>
	<g>
		<path class="st0" d="M-1,500h-2.1"/>
		<path class="st0" d="M-2.1,500v-3.7"/>
		<path class="st0" d="M-2.1,496.3l-0.4,0.5"/>
		<path class="st0" d="M-2.4,496.8l-0.4,0.4"/>
		<path class="st0" d="M-2.8,497.2l-0.4,0.2"/>
	</g>
</g>
<g>
	<g class="st1">
		<rect x="137.9" y="496.2" style="fill:none;" width="3.8" height="5.8"/>
		<text transform="matrix(1 0 0 1 137.8967 500.4521)" style="font-family:'ArialMT'; font-size:4.9133px;">2</text>
	</g>
	<g class="st1">
		<rect x="137.1" y="495.6" style="fill:none;" width="5.5" height="7"/>
		
			<text transform="matrix(1 0 0 1 137.0515 499.8486)" style="fill:none;stroke:#000000;stroke-width:0.4252;stroke-linecap:round;stroke-linejoin:round;stroke-miterlimit:11.3386; font-family:'ArialMT'; font-size:4.9133px;">2</text>
	</g>
	<g>
		<path class="st0" d="M138.6,496.6l0.2-0.2"/>
		<path class="st0" d="M138.8,496.5l0.4-0.2"/>
		<path class="st0" d="M139.1,496.3h0.9"/>
		<path class="st0" d="M140,496.3l0.4,0.2"/>
		<path class="st0" d="M140.4,496.5l0.2,0.2"/>
		<path class="st0" d="M140.5,496.6l0.2,0.4"/>
		<path class="st0" d="M140.7,497v0.4"/>
		<path class="st0" d="M140.7,497.3l-0.2,0.5"/>
		<path class="st0" d="M140.5,497.9l-2.1,2.1"/>
		<path class="st0" d="M138.4,500h2.3"/>
	</g>
</g>
<g>
	<g class="st1">
		<rect x="279.6" y="496.2" style="fill:none;" width="3.8" height="5.8"/>
		<text transform="matrix(1 0 0 1 279.6291 500.4521)" style="font-family:'ArialMT'; font-size:4.9133px;">3</text>
	</g>
	<g class="st1">
		<rect x="278.8" y="495.6" style="fill:none;" width="5.5" height="7"/>
		
			<text transform="matrix(1 0 0 1 278.7839 499.8486)" style="fill:none;stroke:#000000;stroke-width:0.4252;stroke-linecap:round;stroke-linejoin:round;stroke-miterlimit:11.3386; font-family:'ArialMT'; font-size:4.9133px;">3</text>
	</g>
	<g>
		<path class="st0" d="M280.2,496.3h2.3"/>
		<path class="st0" d="M282.4,496.3l-1.2,1.4"/>
		<path class="st0" d="M281.2,497.7h0.5"/>
		<path class="st0" d="M281.7,497.7l0.4,0.2"/>
		<path class="st0" d="M282.1,497.9l0.2,0.2"/>
		<path class="st0" d="M282.3,498l0.2,0.4"/>
		<path class="st0" d="M282.4,498.4v0.9"/>
		<path class="st0" d="M282.4,499.3l-0.2,0.4"/>
		<path class="st0" d="M282.3,499.6l-0.2,0.2"/>
		<path class="st0" d="M282.1,499.8l-0.4,0.2"/>
		<path class="st0" d="M281.7,500h-1.1"/>
		<path class="st0" d="M280.7,500l-0.4-0.2"/>
		<path class="st0" d="M280.3,499.8l-0.2-0.2"/>
	</g>
</g>
<g>
	<g class="st1">
		<rect x="-73.6" y="456.5" style="fill:none;" width="4" height="5.8"/>
		<text transform="matrix(1 0 0 1 -73.6409 460.747)" style="font-family:'ArialMT'; font-size:4.9133px;">D</text>
	</g>
	<g class="st1">
		<rect x="-74.3" y="455.9" style="fill:none;" width="5.4" height="7"/>
		
			<text transform="matrix(1 0 0 1 -74.3216 460.1435)" style="fill:none;stroke:#000000;stroke-width:0.4252;stroke-linecap:round;stroke-linejoin:round;stroke-miterlimit:11.3386; font-family:'ArialMT'; font-size:4.9133px;">D</text>
	</g>
	<g>
		<path class="st0" d="M-72.8,460.3v-3.7"/>
		<path class="st0" d="M-72.8,456.6h0.9"/>
		<path class="st0" d="M-72,456.6l0.5,0.2"/>
		<path class="st0" d="M-71.4,456.7l0.4,0.4"/>
		<path class="st0" d="M-71.1,457.1l0.2,0.4"/>
		<path class="st0" d="M-70.9,457.4l0.2,0.7"/>
		<path class="st0" d="M-70.7,458.2v0.5"/>
		<path class="st0" d="M-70.7,458.7l-0.2,0.7"/>
		<path class="st0" d="M-70.9,459.4l-0.2,0.4"/>
		<path class="st0" d="M-71.1,459.7l-0.4,0.4"/>
		<path class="st0" d="M-71.4,460.1l-0.5,0.2"/>
		<path class="st0" d="M-72,460.3h-0.9"/>
	</g>
</g>
<g>
	<circle class="st2" cx="263.3" cy="263" r="3.1"/>
</g>
<g>
	<path class="st3" d="M270.3,254.4l41.4-51.1"/>
</g>
<g>
	<circle class="st2" cx="318.6" cy="194.7" r="3.1"/>
</g>
<g>
	<path class="st4" d="M33.5,373.4h5.7"/>
	<path class="st4" d="M33.5,26.1h5.7"/>
	<path class="st4" d="M597.6,373.4h5.7"/>
	<path class="st4" d="M597.6,26.1h5.7"/>
</g>
<g>
	<circle class="st5" cx="188.7" cy="195.8" r="14.1"/>
	<circle class="st5" cx="40.3" cy="151.9" r="14.1"/>
	<circle class="st5" cx="596.5" cy="160.5" r="14.1"/>
	<circle class="st5" cx="448.2" cy="204.4" r="14.1"/>
</g>
<g>
	<circle class="st2" cx="263.3" cy="263" r="3.1"/>
</g>
<g>
	<path class="st3" d="M270.3,254.4l41.4-51.1"/>
</g>
<g>
	<circle class="st2" cx="318.6" cy="194.7" r="3.1"/>
</g>
<g>
	<path class="st4" d="M33.5,373.4h5.7"/>
	<path class="st4" d="M33.5,26.1h5.7"/>
	<path class="st4" d="M597.6,373.4h5.7"/>
	<path class="st4" d="M597.6,26.1h5.7"/>
</g>
<g>
	<path class="st6" d="M282.8,243l-4-3.2"/>
	<path class="st6" d="M278.8,239.8l-8.9,11"/>
	<path class="st6" d="M269.9,250.8l4,3.2"/>
	<path class="st6" d="M273.8,254l8.9-11"/>
</g>
<g>
	<path class="st7" d="M282.8,243l-4-3.2l-8.9,11l4,3.2"/>
</g>
<g>
	<circle class="st2" cx="263.3" cy="263" r="3.1"/>
</g>
<g>
	<path class="st3" d="M270.3,254.4l41.4-51.1"/>
</g>
<g>
	<circle class="st2" cx="318.6" cy="194.7" r="3.1"/>
</g>
<g>
	<path class="st4" d="M33.5,373.4h5.7"/>
	<path class="st4" d="M33.5,26.1h5.7"/>
	<path class="st4" d="M597.6,373.4h5.7"/>
	<path class="st4" d="M597.6,26.1h5.7"/>
</g>
<g>
	<circle class="st6" cx="151.6" cy="116.6" r="30.2"/>
	<circle class="st6" cx="151.6" cy="116.6" r="18.1"/>
	<circle class="st6" cx="151.6" cy="116.6" r="16.2"/>
	<circle class="st6" cx="337" cy="151.9" r="30.2"/>
	<circle class="st6" cx="337" cy="151.9" r="18.1"/>
	<circle class="st6" cx="337" cy="151.9" r="16.2"/>
	<circle class="st6" cx="485.3" cy="64" r="30.2"/>
	<circle class="st6" cx="485.3" cy="64" r="18.1"/>
	<circle class="st6" cx="485.3" cy="64" r="16.2"/>
	<circle class="st6" cx="448.2" cy="72.7" r="30.2"/>
	<circle class="st6" cx="448.2" cy="72.7" r="18.1"/>
	<circle class="st6" cx="448.2" cy="72.7" r="16.2"/>
	<circle class="st6" cx="299.9" cy="116.6" r="30.2"/>
	<circle class="st6" cx="299.9" cy="116.6" r="18.1"/>
	<circle class="st6" cx="299.9" cy="116.6" r="16.2"/>
	<circle class="st6" cx="299.9" cy="160.5" r="30.2"/>
	<circle class="st6" cx="299.9" cy="160.5" r="18.1"/>
	<circle class="st6" cx="299.9" cy="160.5" r="16.2"/>
	<circle class="st6" cx="114.5" cy="64" r="30.2"/>
	<circle class="st6" cx="114.5" cy="64" r="18.1"/>
	<circle class="st6" cx="114.5" cy="64" r="16.2"/>
	<circle class="st6" cx="522.4" cy="116.6" r="30.2"/>
	<circle class="st6" cx="522.4" cy="116.6" r="18.1"/>
	<circle class="st6" cx="522.4" cy="116.6" r="16.2"/>
	<circle class="st6" cx="114.5" cy="239.7" r="30.2"/>
	<circle class="st6" cx="114.5" cy="239.7" r="18.1"/>
	<circle class="st6" cx="114.5" cy="239.7" r="16.2"/>
	<circle class="st6" cx="596.5" cy="116.6" r="30.2"/>
	<circle class="st6" cx="596.5" cy="116.6" r="18.1"/>
	<circle class="st6" cx="596.5" cy="116.6" r="16.2"/>
	<circle class="st6" cx="374.1" cy="116.6" r="30.2"/>
	<circle class="st6" cx="374.1" cy="116.6" r="18.1"/>
	<circle class="st6" cx="374.1" cy="116.6" r="16.2"/>
	<circle class="st6" cx="188.7" cy="151.9" r="30.2"/>
	<circle class="st6" cx="188.7" cy="151.9" r="18.1"/>
	<circle class="st6" cx="188.7" cy="151.9" r="16.2"/>
	<circle class="st6" cx="77.4" cy="160.5" r="30.2"/>
	<circle class="st6" cx="77.4" cy="160.5" r="18.1"/>
	<circle class="st6" cx="77.4" cy="160.5" r="16.2"/>
	<circle class="st6" cx="596.5" cy="204.4" r="30.2"/>
	<circle class="st6" cx="596.5" cy="204.4" r="18.1"/>
	<circle class="st6" cx="596.5" cy="204.4" r="16.2"/>
	<circle class="st6" cx="374.1" cy="248.3" r="30.2"/>
	<circle class="st6" cx="374.1" cy="248.3" r="18.1"/>
	<circle class="st6" cx="374.1" cy="248.3" r="16.2"/>
	<circle class="st6" cx="77.4" cy="248.3" r="30.2"/>
	<circle class="st6" cx="77.4" cy="248.3" r="18.1"/>
	
		<ellipse transform="matrix(7.088898e-02 -0.9975 0.9975 7.088898e-02 -175.7899 307.9659)" class="st6" cx="77.4" cy="248.3" rx="16.2" ry="16.2"/>
	<circle class="st6" cx="374.1" cy="204.4" r="30.2"/>
	<circle class="st6" cx="374.1" cy="204.4" r="18.1"/>
	<circle class="st6" cx="374.1" cy="204.4" r="16.2"/>
	<circle class="st6" cx="225.7" cy="160.5" r="30.2"/>
	<circle class="st6" cx="225.7" cy="160.5" r="18.1"/>
	<circle class="st6" cx="225.7" cy="160.5" r="16.2"/>
	<circle class="st6" cx="151.6" cy="204.4" r="30.2"/>
	<circle class="st6" cx="151.6" cy="204.4" r="18.1"/>
	<circle class="st6" cx="151.6" cy="204.4" r="16.2"/>
	<circle class="st6" cx="77.4" cy="116.6" r="30.2"/>
	<circle class="st6" cx="77.4" cy="116.6" r="18.1"/>
	<circle class="st6" cx="77.4" cy="116.6" r="16.2"/>
	<circle class="st6" cx="114.5" cy="151.9" r="30.2"/>
	<circle class="st6" cx="114.5" cy="151.9" r="18.1"/>
	<circle class="st6" cx="114.5" cy="151.9" r="16.2"/>
	<circle class="st6" cx="188.7" cy="239.7" r="30.2"/>
	<circle class="st6" cx="188.7" cy="239.7" r="18.1"/>
	<circle class="st6" cx="188.7" cy="239.7" r="16.2"/>
	<circle class="st6" cx="40.3" cy="195.8" r="30.2"/>
	<circle class="st6" cx="40.3" cy="195.8" r="18.1"/>
	<circle class="st6" cx="40.3" cy="195.8" r="16.2"/>
	<circle class="st6" cx="151.6" cy="160.5" r="30.2"/>
	<circle class="st6" cx="151.6" cy="160.5" r="18.1"/>
	<circle class="st6" cx="151.6" cy="160.5" r="16.2"/>
	<circle class="st6" cx="522.4" cy="160.5" r="30.2"/>
	<circle class="st6" cx="522.4" cy="160.5" r="18.1"/>
	<circle class="st6" cx="522.4" cy="160.5" r="16.2"/>
	<circle class="st6" cx="596.5" cy="160.5" r="30.2"/>
	<circle class="st6" cx="596.5" cy="160.5" r="18.1"/>
	<circle class="st6" cx="596.5" cy="160.5" r="16.2"/>
	<circle class="st6" cx="299.9" cy="72.7" r="30.2"/>
	<circle class="st6" cx="299.9" cy="72.7" r="18.1"/>
	<circle class="st6" cx="299.9" cy="72.7" r="16.2"/>
	
		<ellipse transform="matrix(0.1602 -0.9871 0.9871 0.1602 157.5212 313.1961)" class="st6" cx="262.8" cy="64" rx="30.2" ry="30.2"/>
	<circle class="st6" cx="262.8" cy="64" r="18.1"/>
	<circle class="st6" cx="262.8" cy="64" r="16.2"/>
	<circle class="st6" cx="448.2" cy="116.6" r="30.2"/>
	<circle class="st6" cx="448.2" cy="116.6" r="18.1"/>
	<circle class="st6" cx="448.2" cy="116.6" r="16.2"/>
	<circle class="st6" cx="374.1" cy="160.5" r="30.2"/>
	<circle class="st6" cx="374.1" cy="160.5" r="18.1"/>
	<circle class="st6" cx="374.1" cy="160.5" r="16.2"/>
	<circle class="st6" cx="411.1" cy="64" r="30.2"/>
	<circle class="st6" cx="411.1" cy="64" r="18.1"/>
	<circle class="st6" cx="411.1" cy="64" r="16.2"/>
	<circle class="st6" cx="337" cy="239.7" r="30.2"/>
	<circle class="st6" cx="337" cy="239.7" r="18.1"/>
	<circle class="st6" cx="337" cy="239.7" r="16.2"/>
	<circle class="st6" cx="225.7" cy="204.4" r="30.2"/>
	<circle class="st6" cx="225.7" cy="204.4" r="18.1"/>
	<circle class="st6" cx="225.7" cy="204.4" r="16.2"/>
	<circle class="st6" cx="299.9" cy="204.4" r="30.2"/>
	<circle class="st6" cx="299.9" cy="204.4" r="18.1"/>
	<circle class="st6" cx="299.9" cy="204.4" r="16.2"/>
	<circle class="st6" cx="485.3" cy="151.9" r="30.2"/>
	<circle class="st6" cx="485.3" cy="151.9" r="18.1"/>
	<circle class="st6" cx="485.3" cy="151.9" r="16.2"/>
	<circle class="st6" cx="40.3" cy="64" r="30.2"/>
	<circle class="st6" cx="40.3" cy="64" r="18.1"/>
	<circle class="st6" cx="40.3" cy="64" r="16.2"/>
	<circle class="st6" cx="411.1" cy="107.9" r="30.2"/>
	<circle class="st6" cx="411.1" cy="107.9" r="18.1"/>
	<circle class="st6" cx="411.1" cy="107.9" r="16.2"/>
	<circle class="st6" cx="225.7" cy="116.6" r="30.2"/>
	<circle class="st6" cx="225.7" cy="116.6" r="18.1"/>
	<circle class="st6" cx="225.7" cy="116.6" r="16.2"/>
	<circle class="st6" cx="40.3" cy="151.9" r="30.2"/>
	<circle class="st6" cx="40.3" cy="151.9" r="18.1"/>
	<circle class="st6" cx="40.3" cy="151.9" r="16.2"/>
	<circle class="st6" cx="40.3" cy="239.7" r="30.2"/>
	<circle class="st6" cx="40.3" cy="239.7" r="18.1"/>
	<circle class="st6" cx="40.3" cy="239.7" r="16.2"/>
	<circle class="st6" cx="411.1" cy="151.9" r="30.2"/>
	<circle class="st6" cx="411.1" cy="151.9" r="18.1"/>
	<circle class="st6" cx="411.1" cy="151.9" r="16.2"/>
	<circle class="st6" cx="596.5" cy="248.3" r="30.2"/>
	<circle class="st6" cx="596.5" cy="248.3" r="18.1"/>
	<circle class="st6" cx="596.5" cy="248.3" r="16.2"/>
	<circle class="st6" cx="411.1" cy="195.8" r="30.2"/>
	<circle class="st6" cx="411.1" cy="195.8" r="18.1"/>
	<circle class="st6" cx="411.1" cy="195.8" r="16.2"/>
	<circle class="st6" cx="448.2" cy="160.5" r="30.2"/>
	<circle class="st6" cx="448.2" cy="160.5" r="18.1"/>
	<circle class="st6" cx="448.2" cy="160.5" r="16.2"/>
	<circle class="st6" cx="151.6" cy="248.3" r="30.2"/>
	<circle class="st6" cx="151.6" cy="248.3" r="18.1"/>
	<circle class="st6" cx="151.6" cy="248.3" r="16.2"/>
	<circle class="st6" cx="448.2" cy="204.4" r="30.2"/>
	<circle class="st6" cx="448.2" cy="204.4" r="18.1"/>
	<circle class="st6" cx="448.2" cy="204.4" r="16.2"/>
	<circle class="st6" cx="596.5" cy="72.7" r="30.2"/>
	<circle class="st6" cx="596.5" cy="72.7" r="18.1"/>
	<circle class="st6" cx="596.5" cy="72.7" r="16.2"/>
	<circle class="st6" cx="559.5" cy="107.9" r="30.2"/>
	<circle class="st6" cx="559.5" cy="107.9" r="18.1"/>
	<circle class="st6" cx="559.5" cy="107.9" r="16.2"/>
	<circle class="st6" cx="485.3" cy="239.7" r="30.2"/>
	<circle class="st6" cx="485.3" cy="239.7" r="18.1"/>
	<circle class="st6" cx="485.3" cy="239.7" r="16.2"/>
	<circle class="st6" cx="374.1" cy="72.7" r="30.2"/>
	<circle class="st6" cx="374.1" cy="72.7" r="18.1"/>
	<circle class="st6" cx="374.1" cy="72.7" r="16.2"/>
	<circle class="st6" cx="151.6" cy="72.7" r="30.2"/>
	<circle class="st6" cx="151.6" cy="72.7" r="18.1"/>
	<circle class="st6" cx="151.6" cy="72.7" r="16.2"/>
	<circle class="st6" cx="485.3" cy="107.9" r="30.2"/>
	<circle class="st6" cx="485.3" cy="107.9" r="18.1"/>
	<circle class="st6" cx="485.3" cy="107.9" r="16.2"/>
	<circle class="st6" cx="559.5" cy="151.9" r="30.2"/>
	<circle class="st6" cx="559.5" cy="151.9" r="18.1"/>
	<circle class="st6" cx="559.5" cy="151.9" r="16.2"/>
	<circle class="st6" cx="114.5" cy="107.9" r="30.2"/>
	<circle class="st6" cx="114.5" cy="107.9" r="18.1"/>
	<circle class="st6" cx="114.5" cy="107.9" r="16.2"/>
	<circle class="st6" cx="225.7" cy="72.7" r="30.2"/>
	<circle class="st6" cx="225.7" cy="72.7" r="18.1"/>
	<circle class="st6" cx="225.7" cy="72.7" r="16.2"/>
	<circle class="st6" cx="77.4" cy="72.7" r="30.2"/>
	<circle class="st6" cx="77.4" cy="72.7" r="18.1"/>
	
		<ellipse transform="matrix(0.1602 -0.9871 0.9871 0.1602 -6.7094 137.4461)" class="st6" cx="77.4" cy="72.7" rx="16.2" ry="16.2"/>
	<circle class="st6" cx="77.4" cy="204.4" r="30.2"/>
	<circle class="st6" cx="77.4" cy="204.4" r="18.1"/>
	
		<ellipse transform="matrix(7.088898e-02 -0.9975 0.9975 7.088898e-02 -131.9804 267.1593)" class="st6" cx="77.4" cy="204.4" rx="16.2" ry="16.2"/>
	<circle class="st6" cx="522.4" cy="204.4" r="30.2"/>
	<circle class="st6" cx="522.4" cy="204.4" r="18.1"/>
	<circle class="st6" cx="522.4" cy="204.4" r="16.2"/>
	<circle class="st6" cx="188.7" cy="195.8" r="30.2"/>
	<circle class="st6" cx="188.7" cy="195.8" r="18.1"/>
	<circle class="st6" cx="188.7" cy="195.8" r="16.2"/>
	
		<ellipse transform="matrix(0.2898 -0.9571 0.9571 0.2898 83.3443 328.2075)" class="st6" cx="262.8" cy="107.9" rx="30.2" ry="30.2"/>
	<circle class="st6" cx="262.8" cy="107.9" r="18.1"/>
	<circle class="st6" cx="262.8" cy="107.9" r="16.2"/>
	<circle class="st6" cx="188.7" cy="64" r="30.2"/>
	<circle class="st6" cx="188.7" cy="64" r="18.1"/>
	<circle class="st6" cx="188.7" cy="64" r="16.2"/>
	<circle class="st6" cx="114.5" cy="195.8" r="30.2"/>
	<circle class="st6" cx="114.5" cy="195.8" r="18.1"/>
	<circle class="st6" cx="114.5" cy="195.8" r="16.2"/>
	<circle class="st6" cx="299.9" cy="248.3" r="30.2"/>
	<circle class="st6" cx="299.9" cy="248.3" r="18.1"/>
	<circle class="st6" cx="299.9" cy="248.3" r="16.2"/>
	<circle class="st6" cx="559.5" cy="195.8" r="30.2"/>
	<circle class="st6" cx="559.5" cy="195.8" r="18.1"/>
	<circle class="st6" cx="559.5" cy="195.8" r="16.2"/>
	<circle class="st6" cx="522.4" cy="248.3" r="30.2"/>
	<circle class="st6" cx="522.4" cy="248.3" r="18.1"/>
	<circle class="st6" cx="522.4" cy="248.3" r="16.2"/>
	
		<ellipse transform="matrix(0.1602 -0.9871 0.9871 0.1602 -15.8903 460.7353)" class="st6" cx="262.8" cy="239.7" rx="30.2" ry="30.2"/>
	<circle class="st6" cx="262.8" cy="239.7" r="18.1"/>
	<circle class="st6" cx="262.8" cy="239.7" r="16.2"/>
	<circle class="st6" cx="40.3" cy="107.9" r="30.2"/>
	<circle class="st6" cx="40.3" cy="107.9" r="18.1"/>
	<circle class="st6" cx="40.3" cy="107.9" r="16.2"/>
	<circle class="st6" cx="337" cy="64" r="30.2"/>
	<circle class="st6" cx="337" cy="64" r="18.1"/>
	<circle class="st6" cx="337" cy="64" r="16.2"/>
	<circle class="st6" cx="559.5" cy="64" r="30.2"/>
	<circle class="st6" cx="559.5" cy="64" r="18.1"/>
	<circle class="st6" cx="559.5" cy="64" r="16.2"/>
	<circle class="st6" cx="337" cy="107.9" r="30.2"/>
	<circle class="st6" cx="337" cy="107.9" r="18.1"/>
	<circle class="st6" cx="337" cy="107.9" r="16.2"/>
	
		<ellipse transform="matrix(0.1602 -0.9871 0.9871 0.1602 70.8155 386.9657)" class="st6" cx="262.8" cy="151.9" rx="30.2" ry="30.2"/>
	<circle class="st6" cx="262.8" cy="151.9" r="18.1"/>
	<circle class="st6" cx="262.8" cy="151.9" r="16.2"/>
	<circle class="st6" cx="522.4" cy="72.7" r="30.2"/>
	<circle class="st6" cx="522.4" cy="72.7" r="18.1"/>
	<circle class="st6" cx="522.4" cy="72.7" r="16.2"/>
	<circle class="st6" cx="559.5" cy="239.7" r="30.2"/>
	<circle class="st6" cx="559.5" cy="239.7" r="18.1"/>
	<circle class="st6" cx="559.5" cy="239.7" r="16.2"/>
	<circle class="st6" cx="411.1" cy="239.7" r="30.2"/>
	<circle class="st6" cx="411.1" cy="239.7" r="18.1"/>
	<circle class="st6" cx="411.1" cy="239.7" r="16.2"/>
	<circle class="st6" cx="337" cy="195.8" r="30.2"/>
	<circle class="st6" cx="337" cy="195.8" r="18.1"/>
	<circle class="st6" cx="337" cy="195.8" r="16.2"/>
	<circle class="st6" cx="188.7" cy="107.9" r="30.2"/>
	<circle class="st6" cx="188.7" cy="107.9" r="18.1"/>
	<circle class="st6" cx="188.7" cy="107.9" r="16.2"/>
	<circle class="st6" cx="225.7" cy="248.3" r="30.2"/>
	<circle class="st6" cx="225.7" cy="248.3" r="18.1"/>
	<circle class="st6" cx="225.7" cy="248.3" r="16.2"/>
	<circle class="st6" cx="485.3" cy="195.8" r="30.2"/>
	<circle class="st6" cx="485.3" cy="195.8" r="18.1"/>
	<circle class="st6" cx="485.3" cy="195.8" r="16.2"/>
	<circle class="st6" cx="448.2" cy="248.3" r="30.2"/>
	<circle class="st6" cx="448.2" cy="248.3" r="18.1"/>
	<circle class="st6" cx="448.2" cy="248.3" r="16.2"/>
	
		<ellipse transform="matrix(0.1602 -0.9871 0.9871 0.1602 27.4626 423.8505)" class="st6" cx="262.8" cy="195.8" rx="30.2" ry="30.2"/>
	<circle class="st6" cx="262.8" cy="195.8" r="18.1"/>
	<circle class="st6" cx="262.8" cy="195.8" r="16.2"/>
</g>
<g>
	<path class="st8" d="M16.5,17.6h603.8"/>
	<path class="st8" d="M620.3,17.6v364.3"/>
	<path class="st8" d="M620.3,381.9H16.5"/>
	<path class="st8" d="M16.5,381.9V17.6"/>
</g>
</svg>
